<svg width="17" height="19" viewBox="0 0 17 19" fill="none" xmlns="http://www.w3.org/2000/svg">
<path d="M13.3277 3.0285C12.6443 2.24802 12.2676 1.2459 12.2677 0.208496H9.1777V12.6085C9.15436 13.2797 8.87122 13.9156 8.388 14.382C7.90479 14.8484 7.25929 15.1089 6.5877 15.1085C5.1677 15.1085 3.9877 13.9485 3.9877 12.5085C3.9877 10.7885 5.6477 9.4985 7.3577 10.0285V6.8685C3.9077 6.4085 0.887695 9.0885 0.887695 12.5085C0.887695 15.8385 3.6477 18.2085 6.5777 18.2085C9.7177 18.2085 12.2677 15.6585 12.2677 12.5085V6.2185C13.5207 7.11835 15.0251 7.60114 16.5677 7.5985V4.5085C16.5677 4.5085 14.6877 4.5985 13.3277 3.0285Z" fill="#FBF8F3"/>
</svg>
