<svg width="21" height="15" viewBox="0 0 21 15" fill="none" xmlns="http://www.w3.org/2000/svg">
<path d="M20.3204 2.4115C20.2065 1.98891 19.9839 1.60351 19.6747 1.29367C19.3656 0.983834 18.9807 0.760364 18.5584 0.645503C16.9924 0.215503 10.7274 0.208504 10.7274 0.208504C10.7274 0.208504 4.46338 0.201503 2.89638 0.612503C2.47431 0.73265 2.0902 0.959281 1.78095 1.27064C1.47169 1.582 1.24767 1.96762 1.13038 2.3905C0.717381 3.9565 0.71338 7.2045 0.71338 7.2045C0.71338 7.2045 0.70938 10.4685 1.11938 12.0185C1.34938 12.8755 2.02438 13.5525 2.88238 13.7835C4.46438 14.2135 10.7124 14.2205 10.7124 14.2205C10.7124 14.2205 16.9774 14.2275 18.5434 13.8175C18.9659 13.7028 19.3511 13.4799 19.661 13.1707C19.9709 12.8615 20.1948 12.4767 20.3104 12.0545C20.7244 10.4895 20.7274 7.2425 20.7274 7.2425C20.7274 7.2425 20.7474 3.9775 20.3204 2.4115ZM8.72338 10.2135L8.72838 4.2135L13.9354 7.2185L8.72338 10.2135Z" fill="#FBF8F3"/>
</svg>
